<svg width="500" height="573" viewBox="0 0 500 573" fill="none" xmlns="http://www.w3.org/2000/svg">
<path d="M161.929 556H138.589V515.8H161.089C163.689 515.8 165.889 516.18 167.689 516.94C169.529 517.7 170.929 518.82 171.889 520.3C172.889 521.78 173.389 523.58 173.389 525.7C173.389 528.06 172.689 530.06 171.289 531.7C169.929 533.34 167.709 534.34 164.629 534.7V535.12C168.069 535.52 170.629 536.6 172.309 538.36C173.989 540.08 174.829 542.26 174.829 544.9C174.829 547.18 174.329 549.16 173.329 550.84C172.329 552.52 170.869 553.8 168.949 554.68C167.029 555.56 164.689 556 161.929 556ZM145.009 538V550.18H161.209C163.609 550.18 165.389 549.7 166.549 548.74C167.749 547.74 168.349 546.16 168.349 544C168.349 541.88 167.749 540.36 166.549 539.44C165.389 538.48 163.609 538 161.209 538H145.009ZM145.009 521.62V532.66H160.189C162.469 532.66 164.169 532.22 165.289 531.34C166.409 530.42 166.969 529.02 166.969 527.14C166.969 525.26 166.429 523.88 165.349 523C164.269 522.08 162.609 521.62 160.369 521.62H145.009ZM185.505 556H179.025V526.18H185.505V556ZM185.505 522.7H179.025V515.8H185.505V522.7ZM207.166 566.8C204.206 566.8 201.606 566.34 199.366 565.42C197.126 564.54 195.366 563.26 194.086 561.58C192.846 559.9 192.226 557.86 192.226 555.46H198.646C198.646 556.9 198.946 558.06 199.546 558.94C200.146 559.82 201.086 560.44 202.366 560.8C203.686 561.2 205.406 561.4 207.526 561.4C209.806 561.4 211.606 561.14 212.926 560.62C214.286 560.14 215.266 559.28 215.866 558.04C216.466 556.8 216.766 555.08 216.766 552.88V535.42L217.246 535V526.18H223.186V552.52C223.186 555.84 222.526 558.54 221.206 560.62C219.886 562.74 218.026 564.3 215.626 565.3C213.226 566.3 210.406 566.8 207.166 566.8ZM204.466 553.3C201.506 553.3 198.966 552.72 196.846 551.56C194.766 550.4 193.146 548.78 191.986 546.7C190.866 544.62 190.306 542.2 190.306 539.44C190.306 536.68 190.886 534.26 192.046 532.18C193.246 530.1 194.926 528.48 197.086 527.32C199.286 526.16 201.886 525.58 204.886 525.58C208.006 525.58 210.646 526.28 212.806 527.68C215.006 529.04 216.366 531.02 216.886 533.62H218.266L217.906 538.84H216.766C216.766 537.16 216.366 535.76 215.566 534.64C214.766 533.48 213.626 532.62 212.146 532.06C210.666 531.5 208.866 531.22 206.746 531.22C204.706 531.22 202.926 531.48 201.406 532C199.926 532.52 198.786 533.38 197.986 534.58C197.226 535.74 196.846 537.36 196.846 539.44C196.846 541.48 197.226 543.1 197.986 544.3C198.746 545.5 199.846 546.38 201.286 546.94C202.766 547.46 204.526 547.72 206.566 547.72C209.846 547.72 212.366 547.04 214.126 545.68C215.886 544.32 216.766 542.32 216.766 539.68H217.906V545.56H216.346C215.826 547.84 214.566 549.7 212.566 551.14C210.566 552.58 207.866 553.3 204.466 553.3ZM230.406 556H226.278L233.126 548.128V547.936L226.278 540.096H230.47L235.75 546.112H235.942L241.158 540.096H245.318L238.47 547.872V548.064L245.318 556H241.126L235.846 549.92H235.622L230.406 556ZM271.44 556H248.1V515.8H270.6C273.2 515.8 275.4 516.18 277.2 516.94C279.04 517.7 280.44 518.82 281.4 520.3C282.4 521.78 282.9 523.58 282.9 525.7C282.9 528.06 282.2 530.06 280.8 531.7C279.44 533.34 277.22 534.34 274.14 534.7V535.12C277.58 535.52 280.14 536.6 281.82 538.36C283.5 540.08 284.34 542.26 284.34 544.9C284.34 547.18 283.84 549.16 282.84 550.84C281.84 552.52 280.38 553.8 278.46 554.68C276.54 555.56 274.2 556 271.44 556ZM254.52 538V550.18H270.72C273.12 550.18 274.9 549.7 276.06 548.74C277.26 547.74 277.86 546.16 277.86 544C277.86 541.88 277.26 540.36 276.06 539.44C274.9 538.48 273.12 538 270.72 538H254.52ZM254.52 521.62V532.66H269.7C271.98 532.66 273.68 532.22 274.8 531.34C275.92 530.42 276.48 529.02 276.48 527.14C276.48 525.26 275.94 523.88 274.86 523C273.78 522.08 272.12 521.62 269.88 521.62H254.52ZM316.737 556H310.797V548.32L310.377 548.14V537.94C310.377 535.46 309.777 533.74 308.577 532.78C307.417 531.78 305.397 531.28 302.517 531.28C299.757 531.28 297.697 531.76 296.337 532.72C294.977 533.68 294.297 535.26 294.297 537.46V537.7H287.877V537.46C287.877 535.18 288.477 533.16 289.677 531.4C290.877 529.6 292.597 528.18 294.837 527.14C297.117 526.1 299.837 525.58 302.997 525.58C306.157 525.58 308.737 526.12 310.737 527.2C312.777 528.24 314.277 529.68 315.237 531.52C316.237 533.36 316.737 535.48 316.737 537.88V556ZM297.297 556.6C294.217 556.6 291.757 555.92 289.917 554.56C288.117 553.16 287.217 551.24 287.217 548.8C287.217 547.24 287.597 545.94 288.357 544.9C289.157 543.82 290.277 542.98 291.717 542.38C293.157 541.78 294.857 541.36 296.817 541.12L310.977 539.62V543.46L298.677 544.84C296.997 545.04 295.737 545.4 294.897 545.92C294.097 546.4 293.697 547.22 293.697 548.38C293.697 549.58 294.117 550.48 294.957 551.08C295.837 551.64 297.197 551.92 299.037 551.92C301.317 551.92 303.297 551.64 304.977 551.08C306.657 550.48 307.977 549.56 308.937 548.32C309.897 547.08 310.377 545.48 310.377 543.52L311.217 543.64V548.56H310.377C309.577 551.08 308.037 553.06 305.757 554.5C303.517 555.9 300.697 556.6 297.297 556.6ZM353.661 556H347.181V539.8C347.181 537 346.501 534.9 345.141 533.5C343.821 532.1 341.601 531.4 338.481 531.4C335.241 531.4 332.841 532.24 331.281 533.92C329.761 535.56 329.001 538 329.001 541.24L327.861 541.3L327.561 535.42H328.881C329.201 533.74 329.841 532.16 330.801 530.68C331.801 529.16 333.161 527.94 334.881 527.02C336.641 526.06 338.781 525.58 341.301 525.58C344.061 525.58 346.361 526.14 348.201 527.26C350.041 528.38 351.401 529.88 352.281 531.76C353.201 533.64 353.661 535.74 353.661 538.06V556ZM329.001 556H322.521V526.18H328.461V535.54L329.001 535.84V556ZM375.096 566.8C372.136 566.8 369.536 566.34 367.296 565.42C365.056 564.54 363.296 563.26 362.016 561.58C360.776 559.9 360.156 557.86 360.156 555.46H366.576C366.576 556.9 366.876 558.06 367.476 558.94C368.076 559.82 369.016 560.44 370.296 560.8C371.616 561.2 373.336 561.4 375.456 561.4C377.736 561.4 379.536 561.14 380.856 560.62C382.216 560.14 383.196 559.28 383.796 558.04C384.396 556.8 384.696 555.08 384.696 552.88V535.42L385.176 535V526.18H391.116V552.52C391.116 555.84 390.456 558.54 389.136 560.62C387.816 562.74 385.956 564.3 383.556 565.3C381.156 566.3 378.336 566.8 375.096 566.8ZM372.396 553.3C369.436 553.3 366.896 552.72 364.776 551.56C362.696 550.4 361.076 548.78 359.916 546.7C358.796 544.62 358.236 542.2 358.236 539.44C358.236 536.68 358.816 534.26 359.976 532.18C361.176 530.1 362.856 528.48 365.016 527.32C367.216 526.16 369.816 525.58 372.816 525.58C375.936 525.58 378.576 526.28 380.736 527.68C382.936 529.04 384.296 531.02 384.816 533.62H386.196L385.836 538.84H384.696C384.696 537.16 384.296 535.76 383.496 534.64C382.696 533.48 381.556 532.62 380.076 532.06C378.596 531.5 376.796 531.22 374.676 531.22C372.636 531.22 370.856 531.48 369.336 532C367.856 532.52 366.716 533.38 365.916 534.58C365.156 535.74 364.776 537.36 364.776 539.44C364.776 541.48 365.156 543.1 365.916 544.3C366.676 545.5 367.776 546.38 369.216 546.94C370.696 547.46 372.456 547.72 374.496 547.72C377.776 547.72 380.296 547.04 382.056 545.68C383.816 544.32 384.696 542.32 384.696 539.68H385.836V545.56H384.276C383.756 547.84 382.496 549.7 380.496 551.14C378.496 552.58 375.796 553.3 372.396 553.3Z" fill="white"/>
<circle cx="250.5" cy="260.5" r="195.5" fill="white"/>
<path d="M252.319 171.77L249.056 147.506L258.253 138.967L282.209 144.017L278.74 155.267L261.626 147.787L257.603 151.523L263.795 169.143L252.319 171.77ZM277.236 120.985L257.809 135.99L245.738 132.212L238.185 108.899L249.564 106.361L251.746 124.85L257.049 126.526L269.134 112.452L277.236 120.985ZM220.557 125.266L243.247 134.525L246.121 146.842L229.718 165.105L221.808 156.393L236.739 145.384L235.46 139.972L217.183 136.426L220.557 125.266Z" fill="black"/>
<path d="M388.715 360.143L372.539 350.224L371.911 340.517L386.675 328.596L391.735 336.189L378.862 342.809L379.137 347.055L392.755 351.962L388.715 360.143ZM370.401 320.308L369.905 339.327L361.726 344.73L344.02 337.854L348.067 329.774L360.244 337.515L363.847 335.15L361.307 320.998L370.401 320.308ZM345.224 356.458L361.896 347.358L370.703 351.662L373.645 370.459L364.538 370.946L365.234 356.585L361.356 354.704L350.277 363.949L345.224 356.458Z" fill="black"/>
<path d="M154.715 360.143L138.539 350.224L137.911 340.517L152.675 328.596L157.735 336.189L144.862 342.809L145.137 347.055L158.755 351.962L154.715 360.143ZM136.401 320.308L135.905 339.327L127.726 344.73L110.02 337.854L114.067 329.774L126.244 337.515L129.847 335.15L127.307 320.998L136.401 320.308ZM111.224 356.458L127.896 347.358L136.703 351.662L139.645 370.459L130.538 370.946L131.234 356.585L127.356 354.704L116.277 363.949L111.224 356.458Z" fill="black"/>
<path d="M223.478 171.811L222.714 171.889L221.965 171.975L221.244 172.073L220.566 172.193L219.942 172.338L219.384 172.515L218.901 172.728L218.501 172.981L218.189 173.276L217.969 173.615L217.842 173.999L217.807 174.427L217.86 174.897L217.996 175.407L218.207 175.953L218.483 176.531L218.815 177.135L219.188 177.759L219.59 178.397L220.007 179.041L220.424 179.686L220.826 180.324L221.199 180.948L221.53 181.552L221.807 182.13L222.018 182.676L222.154 183.186L222.207 183.656L222.172 184.084L222.044 184.468L221.824 184.807L221.513 185.102L221.113 185.355L220.63 185.568L220.072 185.745L219.448 185.89L218.77 186.009L218.049 186.108L217.3 186.193L216.536 186.271L215.772 186.35L215.023 186.435L214.302 186.534L213.624 186.653L213 186.798L212.442 186.975L211.959 187.188L211.559 187.441L211.247 187.736L211.027 188.075L210.9 188.459L210.865 188.887L210.918 189.357L211.054 189.867L211.265 190.413L211.542 190.991L211.873 191.595L212.246 192.219L212.648 192.857L213.065 193.502L213.482 194.146L213.884 194.784L214.257 195.408L214.589 196.012L214.865 196.59L215.076 197.136L215.212 197.646L215.265 198.116L215.23 198.544L215.103 198.928L214.883 199.267L214.571 199.562L214.171 199.815L213.688 200.028L213.13 200.205L212.506 200.35L211.828 200.469L211.107 200.568L210.358 200.653L209.594 200.732L208.83 200.81L208.081 200.895L207.361 200.994L206.682 201.113L206.059 201.258L205.5 201.435L205.018 201.648L204.617 201.901L204.306 202.196L204.086 202.535L203.959 202.919L203.923 203.347L203.976 203.817L204.112 204.327L204.323 204.873L204.6 205.451L204.931 206.055L205.304 206.679L205.707 207.317L206.123 207.962L206.54 208.607L206.942 209.244L207.316 209.869L207.647 210.472L207.923 211.05L208.134 211.596L208.27 212.106L208.323 212.576L208.288 213.004L208.161 213.388L207.941 213.727L207.629 214.022L207.229 214.275L206.746 214.488L206.188 214.665L205.564 214.81L204.886 214.93L204.165 215.029L203.416 215.114L202.652 215.192L201.889 215.27L201.139 215.355L200.419 215.454L199.741 215.573L199.117 215.719L198.559 215.895L198.076 216.108L197.676 216.361L197.364 216.656L197.144 216.996L197.017 217.379L196.982 217.807L197.035 218.277L197.17 218.787L197.381 219.334L197.658 219.911L197.989 220.515L198.363 221.139L198.765 221.777L199.182 222.422L199.598 223.067L200 223.705L200.374 224.329L200.705 224.933L200.982 225.51L201.193 226.056L201.328 226.566L201.382 227.037L201.346 227.464L201.219 227.848L200.999 228.187L200.687 228.483L200.287 228.735L199.804 228.948L199.246 229.125L198.623 229.271L197.944 229.39L197.224 229.489L196.474 229.574L195.711 229.652L194.947 229.73L194.198 229.815L193.477 229.914L192.799 230.033L192.175 230.179L191.617 230.356L191.134 230.569L190.734 230.821L190.422 231.117L190.202 231.456L190.075 231.84L190.04 232.267L190.093 232.738L190.229 233.248L190.44 233.794L190.716 234.371L191.047 234.975L191.421 235.599L191.823 236.237L192.24 236.882L192.656 237.527L193.059 238.165L193.432 238.789L193.763 239.393L194.04 239.97L194.251 240.516L194.387 241.026L194.44 241.497L194.404 241.925L194.277 242.308L194.057 242.648L193.746 242.943L193.345 243.195L192.863 243.408L192.305 243.585L191.681 243.731L191.002 243.85L190.282 243.949L189.533 244.034L188.769 244.112L188.005 244.19L187.256 244.275L186.535 244.374L185.857 244.494L185.233 244.639L184.675 244.816L184.192 245.029L183.792 245.282L183.48 245.577L183.26 245.916L183.133 246.3L183.098 246.728L183.151 247.198L183.287 247.708L183.498 248.254L183.774 248.832L184.106 249.435L184.479 250.06L184.881 250.697L185.298 251.342L185.715 251.987L186.117 252.625L186.49 253.249L186.822 253.853L187.098 254.431L187.309 254.977L187.445 255.487L187.498 255.957L187.463 256.385L187.336 256.769L187.116 257.108L186.804 257.403L186.404 257.656L185.921 257.869L185.363 258.046L184.739 258.191L184.061 258.31L183.34 258.409L182.591 258.494L181.827 258.572L181.063 258.65L180.314 258.736L179.594 258.835L178.915 258.954L178.291 259.099L177.733 259.276L177.25 259.489L176.85 259.742L176.539 260.037L176.319 260.376L176.192 260.76L176.156 261.188L176.209 261.658L176.345 262.168L176.556 262.714L176.833 263.292L177.164 263.896L177.537 264.52L177.94 265.158L178.356 265.802L178.773 266.447L179.175 267.085L179.548 267.709L179.88 268.313L180.156 268.891L180.367 269.437L180.503 269.947L180.556 270.417L180.521 270.845L180.394 271.229L180.174 271.568L179.862 271.863L179.462 272.116L178.979 272.329L178.421 272.506L177.797 272.651L177.119 272.77L176.398 272.869L175.649 272.954L174.885 273.032L174.122 273.111L173.372 273.196L172.652 273.295L171.973 273.414L171.35 273.559L170.792 273.736L170.309 273.949L169.909 274.202L169.597 274.497L169.377 274.836L169.25 275.22L169.214 275.648L169.267 276.118L169.403 276.628L169.614 277.174L169.891 277.752L170.222 278.356L170.596 278.98L170.998 279.618L171.414 280.263L171.831 280.907L172.233 281.545L172.607 282.169L172.938 282.773L173.215 283.351L173.426 283.897L173.561 284.407L173.614 284.877L173.579 285.305L173.452 285.689L173.232 286.028L172.92 286.323L172.52 286.576L172.037 286.789L171.479 286.966L170.855 287.111L170.177 287.23L169.457 287.329L168.707 287.415L167.944 287.493L167.18 287.571L166.431 287.656L165.71 287.755L165.032 287.874L164.408 288.019L163.85 288.196L163.367 288.409L162.967 288.662L162.655 288.957L162.435 289.296L162.308 289.68L162.273 290.108L162.326 290.578L162.461 291.088L162.672 291.634L162.949 292.212L163.28 292.816L163.654 293.44L164.056 294.078L164.473 294.723L164.889 295.368L165.291 296.005L165.665 296.63L165.996 297.233L166.273 297.811L166.484 298.357L166.62 298.867L166.673 299.337L166.637 299.765L166.51 300.149L166.29 300.488L165.978 300.783L165.578 301.036L165.095 301.249L164.537 301.426L163.914 301.571L163.235 301.691L162.515 301.79L161.766 301.875L161.002 301.953L160.238 302.031L159.489 302.116L158.768 302.215L158.09 302.334L157.466 302.48L156.908 302.657L156.425 302.87L156.025 303.122L155.713 303.417L155.493 303.757L155.366 304.14L155.331 304.568L155.384 305.039L155.52 305.549L155.731 306.095L156.007 306.672L156.339 307.276L156.712 307.9L157.114 308.538L157.531 309.183L157.948 309.828L158.35 310.466L158.723 311.09L159.054 311.694L159.331 312.271L159.542 312.817L159.678 313.327L159.731 313.798L159.696 314.225L159.568 314.609L159.348 314.948L159.037 315.244L158.637 315.496L158.154 315.709L157.596 315.886L156.972 316.032L156.294 316.151L155.573 316.25L154.824 316.335" stroke="black" stroke-width="4" stroke-miterlimit="10" stroke-linecap="round"/>
<path d="M347.468 316.056L347.885 315.411L348.287 314.773L348.66 314.149L348.992 313.545L349.268 312.968L349.479 312.422L349.615 311.912L349.668 311.441L349.633 311.014L349.506 310.63L349.286 310.29L348.974 309.995L348.574 309.743L348.091 309.53L347.533 309.353L346.909 309.207L346.231 309.088L345.511 308.989L344.761 308.904L343.998 308.826L343.234 308.747L342.485 308.662L341.764 308.563L341.086 308.444L340.462 308.299L339.904 308.122L339.421 307.909L339.021 307.656L338.709 307.361L338.489 307.021L338.362 306.638L338.327 306.21L338.38 305.74L338.516 305.23L338.727 304.683L339.003 304.106L339.335 303.502L339.708 302.878L340.11 302.24L340.527 301.595L340.944 300.95L341.346 300.313L341.72 299.689L342.051 299.085L342.328 298.507L342.539 297.961L342.674 297.451L342.727 296.981L342.692 296.553L342.565 296.169L342.345 295.83L342.033 295.535L341.633 295.282L341.15 295.069L340.592 294.892L339.969 294.747L339.29 294.627L338.57 294.528L337.821 294.443L337.057 294.365L336.293 294.287L335.544 294.202L334.823 294.103L334.145 293.983L333.521 293.838L332.963 293.661L332.48 293.448L332.08 293.195L331.768 292.9L331.548 292.561L331.421 292.177L331.386 291.749L331.439 291.279L331.575 290.769L331.786 290.223L332.063 289.645L332.394 289.041L332.767 288.417L333.17 287.779L333.586 287.135L334.003 286.49L334.405 285.852L334.779 285.228L335.11 284.624L335.387 284.046L335.598 283.5L335.734 282.99L335.787 282.52L335.751 282.092L335.624 281.708L335.404 281.369L335.093 281.074L334.692 280.821L334.21 280.608L333.652 280.431L333.028 280.286L332.349 280.167L331.629 280.068L330.88 279.983L330.116 279.904L329.352 279.826L328.603 279.741L327.882 279.642L327.204 279.523L326.58 279.377L326.022 279.2L325.539 278.987L325.139 278.735L324.828 278.439L324.608 278.1L324.481 277.716L324.445 277.288L324.498 276.818L324.634 276.308L324.845 275.762L325.122 275.185L325.453 274.581L325.827 273.957L326.229 273.319L326.646 272.674L327.062 272.029L327.464 271.391L327.838 270.767L328.169 270.163L328.446 269.586L328.657 269.04L328.793 268.53L328.846 268.059L328.811 267.632L328.684 267.248L328.464 266.909L328.152 266.613L327.752 266.361L327.269 266.148L326.711 265.971L326.087 265.825L325.409 265.706L324.688 265.607L323.939 265.522L323.175 265.444L322.411 265.365L321.662 265.28L320.942 265.181L320.263 265.062L319.64 264.917L319.082 264.74L318.599 264.527L318.199 264.274L317.887 263.979L317.667 263.64L317.54 263.256L317.504 262.828L317.558 262.358L317.693 261.848L317.904 261.302L318.181 260.724L318.512 260.12L318.886 259.496L319.288 258.858L319.705 258.213L320.121 257.569L320.524 256.931L320.897 256.307L321.228 255.703L321.505 255.125L321.716 254.579L321.852 254.069L321.905 253.599L321.87 253.171L321.743 252.787L321.523 252.448L321.211 252.153L320.811 251.9L320.328 251.687L319.77 251.51L319.146 251.365L318.468 251.245L317.747 251.146L316.998 251.061L316.234 250.983L315.471 250.905L314.721 250.82L314.001 250.721L313.322 250.601L312.699 250.456L312.141 250.279L311.658 250.066L311.258 249.813L310.946 249.518L310.726 249.179L310.599 248.795L310.564 248.367L310.617 247.897L310.753 247.387L310.964 246.841L311.24 246.263L311.572 245.659L311.945 245.035L312.347 244.398L312.764 243.753L313.181 243.108L313.583 242.47L313.956 241.846L314.288 241.242L314.564 240.665L314.775 240.118L314.911 239.608L314.964 239.138L314.929 238.71L314.802 238.327L314.582 237.987L314.27 237.692L313.87 237.439L313.387 237.226L312.829 237.049L312.205 236.904L311.527 236.785L310.807 236.686L310.057 236.601L309.294 236.522L308.53 236.444L307.781 236.359L307.06 236.26L306.382 236.141L305.758 235.995L305.2 235.818L304.717 235.605L304.317 235.353L304.005 235.057L303.785 234.718L303.658 234.334L303.623 233.907L303.676 233.436L303.812 232.926L304.023 232.38L304.299 231.803L304.631 231.199L305.004 230.575L305.406 229.937L305.823 229.292L306.24 228.647L306.642 228.009L307.016 227.385L307.347 226.781L307.624 226.204L307.835 225.658L307.97 225.148L308.023 224.678L307.988 224.25L307.861 223.866L307.641 223.527L307.329 223.231L306.929 222.979L306.446 222.766L305.888 222.589L305.265 222.443L304.586 222.324L303.866 222.225L303.117 222.14L302.353 222.062L301.589 221.984L300.84 221.898L300.119 221.799L299.441 221.68L298.817 221.535L298.259 221.358L297.776 221.145L297.376 220.892L297.064 220.597L296.844 220.258L296.717 219.874L296.682 219.446L296.735 218.976L296.871 218.466L297.082 217.92L297.359 217.342L297.69 216.738L298.063 216.114L298.466 215.476L298.882 214.831L299.299 214.187L299.701 213.549L300.075 212.925L300.406 212.321L300.683 211.743L300.894 211.197L301.03 210.687L301.083 210.217L301.047 209.789L300.92 209.405L300.7 209.066L300.389 208.771L299.989 208.518L299.506 208.305L298.948 208.128L298.324 207.983L297.646 207.863L296.925 207.764L296.176 207.679L295.412 207.601L294.648 207.523L293.899 207.438L293.178 207.339L292.5 207.22L291.876 207.074L291.318 206.897L290.835 206.684L290.435 206.431L290.124 206.136L289.904 205.797L289.777 205.413L289.741 204.985L289.794 204.515L289.93 204.005L290.141 203.459L290.418 202.881L290.749 202.278L291.123 201.653L291.525 201.016L291.942 200.371L292.358 199.726L292.761 199.088L293.134 198.464L293.465 197.86L293.742 197.283L293.953 196.737L294.089 196.227L294.142 195.756L294.107 195.328L293.98 194.945L293.76 194.605L293.448 194.31L293.048 194.057L292.565 193.844L292.007 193.667L291.383 193.522L290.705 193.403L289.984 193.304L289.235 193.219L288.471 193.14L287.707 193.062L286.958 192.977L286.238 192.878L285.559 192.759L284.936 192.613L284.378 192.437L283.895 192.223L283.495 191.971L283.183 191.676L282.963 191.336L282.836 190.953L282.8 190.525L282.854 190.054L282.989 189.544L283.2 188.998L283.477 188.421L283.808 187.817L284.182 187.193L284.584 186.555L285.001 185.91L285.418 185.265L285.82 184.627L286.193 184.003L286.525 183.4L286.801 182.822L287.012 182.276L287.148 181.766L287.201 181.296L287.166 180.868L287.039 180.484L286.819 180.145L286.507 179.85L286.107 179.597L285.624 179.384L285.066 179.207L284.442 179.061L283.764 178.942L283.043 178.843L282.294 178.758L281.53 178.68L280.767 178.602L280.017 178.516L279.297 178.417L278.619 178.298L277.995 178.153L277.437 177.976L276.954 177.763L276.554 177.51L276.242 177.215L276.022 176.876L275.895 176.492L275.86 176.064L275.913 175.594L276.049 175.084L276.26 174.538L276.536 173.96L276.868 173.356L277.241 172.732L277.643 172.094" stroke="black" stroke-width="4" stroke-miterlimit="10" stroke-linecap="round"/>
<path d="M171.46 344.657L171.861 345.542L172.262 346.405L172.663 347.225L173.064 347.982L173.465 348.657L173.866 349.234L174.267 349.698L174.668 350.037L175.069 350.245L175.47 350.314L175.871 350.245L176.272 350.037L176.673 349.698L177.074 349.234L177.475 348.657L177.876 347.982L178.277 347.225L178.678 346.405L179.079 345.542L179.48 344.657L179.882 343.772L180.283 342.909L180.684 342.089L181.085 341.332L181.486 340.657L181.887 340.08L182.288 339.617L182.689 339.277L183.09 339.07L183.491 339L183.892 339.07L184.293 339.277L184.694 339.617L185.095 340.08L185.496 340.657L185.897 341.332L186.298 342.089L186.699 342.909L187.1 343.772L187.501 344.657L187.902 345.542L188.303 346.405L188.704 347.225L189.105 347.982L189.506 348.657L189.907 349.234L190.308 349.698L190.709 350.037L191.11 350.245L191.511 350.314L191.912 350.245L192.313 350.037L192.714 349.698L193.115 349.234L193.516 348.657L193.917 347.982L194.318 347.225L194.719 346.405L195.12 345.542L195.521 344.657L195.922 343.772L196.323 342.909L196.724 342.089L197.125 341.332L197.526 340.657L197.927 340.08L198.328 339.617L198.729 339.277L199.13 339.07L199.531 339L199.932 339.07L200.333 339.277L200.734 339.617L201.135 340.08L201.536 340.657L201.937 341.332L202.338 342.089L202.739 342.909L203.14 343.772L203.541 344.657L203.942 345.542L204.343 346.405L204.744 347.225L205.145 347.982L205.546 348.657L205.947 349.234L206.348 349.698L206.749 350.037L207.15 350.245L207.551 350.314L207.952 350.245L208.353 350.037L208.754 349.698L209.155 349.234L209.556 348.657L209.957 347.982L210.358 347.225L210.759 346.405L211.16 345.542L211.561 344.657L211.962 343.772L212.363 342.909L212.764 342.089L213.165 341.332L213.566 340.657L213.967 340.08L214.368 339.617L214.769 339.277L215.17 339.07L215.571 339L215.972 339.07L216.373 339.277L216.774 339.617L217.175 340.08L217.576 340.657L217.977 341.332L218.378 342.089L218.779 342.909L219.18 343.772L219.581 344.657L219.982 345.542L220.383 346.405L220.784 347.225L221.185 347.982L221.586 348.657L221.987 349.234L222.388 349.698L222.789 350.037L223.19 350.245L223.591 350.314L223.992 350.245L224.393 350.037L224.794 349.698L225.195 349.234L225.596 348.657L225.997 347.982L226.398 347.225L226.799 346.405L227.2 345.542L227.601 344.657L228.002 343.772L228.403 342.909L228.804 342.089L229.205 341.332L229.606 340.657L230.007 340.08L230.408 339.617L230.809 339.277L231.21 339.07L231.611 339L232.012 339.07L232.413 339.277L232.814 339.617L233.215 340.08L233.616 340.657L234.017 341.332L234.418 342.089L234.819 342.909L235.22 343.772L235.621 344.657L236.022 345.542L236.423 346.405L236.824 347.225L237.225 347.982L237.626 348.657L238.027 349.234L238.428 349.698L238.829 350.037L239.23 350.245L239.631 350.314L240.032 350.245L240.433 350.037L240.834 349.698L241.235 349.234L241.636 348.657L242.037 347.982L242.438 347.225L242.839 346.405L243.24 345.542L243.641 344.657L244.042 343.772L244.443 342.909L244.844 342.089L245.245 341.332L245.646 340.657L246.047 340.08L246.448 339.617L246.849 339.277L247.25 339.07L247.651 339L248.052 339.07L248.453 339.277L248.854 339.617L249.255 340.08L249.656 340.657L250.057 341.332L250.458 342.089L250.859 342.909L251.26 343.772L251.661 344.657L252.062 345.542L252.463 346.405L252.864 347.225L253.265 347.982L253.666 348.657L254.067 349.234L254.468 349.698L254.869 350.037L255.27 350.245L255.671 350.314L256.072 350.245L256.473 350.037L256.874 349.698L257.275 349.234L257.676 348.657L258.077 347.982L258.478 347.225L258.879 346.405L259.28 345.542L259.681 344.657L260.082 343.772L260.483 342.909L260.884 342.089L261.285 341.332L261.686 340.657L262.087 340.08L262.488 339.617L262.889 339.277L263.29 339.07L263.691 339L264.092 339.07L264.493 339.277L264.894 339.617L265.295 340.08L265.696 340.657L266.097 341.332L266.498 342.089L266.899 342.909L267.3 343.772L267.701 344.657L268.102 345.542L268.503 346.405L268.904 347.225L269.305 347.982L269.706 348.657L270.107 349.234L270.508 349.698L270.909 350.037L271.31 350.245L271.711 350.314L272.112 350.245L272.513 350.037L272.914 349.698L273.315 349.234L273.716 348.657L274.117 347.982L274.518 347.225L274.919 346.405L275.32 345.542L275.721 344.657L276.122 343.772L276.523 342.909L276.924 342.089L277.325 341.332L277.726 340.657L278.127 340.08L278.528 339.617L278.929 339.277L279.33 339.07L279.731 339L280.132 339.07L280.533 339.277L280.934 339.617L281.335 340.08L281.736 340.657L282.137 341.332L282.538 342.089L282.939 342.909L283.34 343.772L283.741 344.657L284.142 345.542L284.543 346.405L284.944 347.225L285.345 347.982L285.746 348.657L286.147 349.234L286.548 349.698L286.949 350.037L287.35 350.245L287.751 350.314L288.152 350.245L288.553 350.037L288.954 349.698L289.355 349.234L289.756 348.657L290.157 347.982L290.558 347.225L290.959 346.405L291.36 345.542L291.761 344.657L292.162 343.772L292.563 342.909L292.964 342.089L293.365 341.332L293.766 340.657L294.167 340.08L294.568 339.617L294.969 339.277L295.37 339.07L295.771 339L296.172 339.07L296.573 339.277L296.974 339.617L297.375 340.08L297.776 340.657L298.177 341.332L298.578 342.089L298.979 342.909L299.38 343.772L299.781 344.657L300.182 345.542L300.583 346.405L300.984 347.225L301.385 347.982L301.786 348.657L302.187 349.234L302.588 349.698L302.989 350.037L303.39 350.245L303.791 350.314L304.192 350.245L304.593 350.037L304.994 349.698L305.395 349.234L305.796 348.657L306.197 347.982L306.598 347.225L306.999 346.405L307.4 345.542L307.801 344.657L308.202 343.772L308.603 342.909L309.004 342.089L309.405 341.332L309.806 340.657L310.207 340.08L310.608 339.617L311.009 339.277L311.41 339.07L311.811 339L312.212 339.07L312.613 339.277L313.014 339.617L313.415 340.08L313.816 340.657L314.217 341.332L314.618 342.089L315.019 342.909L315.42 343.772L315.821 344.657L316.222 345.542L316.623 346.405L317.024 347.225L317.425 347.982L317.826 348.657L318.227 349.234L318.628 349.698L319.029 350.037L319.43 350.245L319.831 350.314L320.232 350.245L320.633 350.037L321.034 349.698L321.435 349.234L321.836 348.657L322.237 347.982L322.638 347.225L323.039 346.405L323.44 345.542L323.841 344.657L324.242 343.772L324.643 342.909L325.044 342.089L325.445 341.332L325.846 340.657L326.247 340.08L326.648 339.617L327.049 339.277L327.45 339.07L327.851 339L328.252 339.07L328.653 339.277L329.054 339.617L329.455 340.08L329.856 340.657L330.257 341.332L330.658 342.089L331.059 342.909L331.46 343.772" stroke="black" stroke-width="4" stroke-miterlimit="10" stroke-linecap="round"/>
</svg>
